<svg width="61" height="54" viewBox="0 0 61 54" fill="none" xmlns="http://www.w3.org/2000/svg">
<path d="M27.4498 41.7492H12.5424C12.5334 41.7426 12.5254 41.7347 12.5188 41.7256V11.8233H27.4487V0H0.664063V41.7106C0.664062 44.8563 1.91711 47.8731 4.14756 50.0975C6.37801 52.3218 9.40315 53.5714 12.5575 53.5714H27.4498V41.7492Z" fill="#F36B6B"/>
<path d="M60.6607 41.7005H45.7302V26.7891H33.875V53.5748H60.6607V41.7005Z" fill="#F36B6B"/>
<path d="M33.875 11.7469H48.7628C48.7719 11.753 48.7799 11.7606 48.7865 11.7693V26.7857H60.6607V11.7842C60.6607 10.2367 60.3526 8.70429 59.7539 7.27457C59.1552 5.84484 58.2777 4.54577 57.1715 3.4515C56.0653 2.35724 54.752 1.48922 53.3066 0.897014C51.8613 0.304804 50.3121 0 48.7477 0H33.875V11.7469Z" fill="#F36B6B"/>
</svg>
